<?xml version="1.0" standalone="no"?>
<!DOCTYPE svg PUBLIC "-//W3C//DTD SVG 20010904//EN"
 "http://www.w3.org/TR/2001/REC-SVG-20010904/DTD/svg10.dtd">
<svg version="1.0" xmlns="http://www.w3.org/2000/svg"
 width="632.000000pt" height="632.000000pt" viewBox="0 0 632.000000 632.000000"
 preserveAspectRatio="xMidYMid meet">
<metadata>
Created by potrace 1.11, written by Peter Selinger 2001-2013
</metadata>
<g transform="translate(0.000000,632.000000) scale(0.100000,-0.100000)"
fill="#000000" stroke="none">
<path d="M2865 5899 c-55 -10 -113 -21 -130 -24 -16 -3 -64 -8 -105 -11 -126
-9 -474 -102 -670 -179 -248 -98 -558 -267 -726 -395 -343 -262 -580 -517
-777 -838 -107 -175 -249 -495 -231 -524 3 -4 219 -8 479 -8 l475 0 25 51 c25
48 134 217 209 323 46 65 100 119 221 225 269 234 506 369 845 481 260 86 629
131 905 110 540 -39 981 -208 1380 -529 66 -54 273 -270 326 -341 110 -147
186 -283 254 -455 l40 -100 454 -3 c280 -1 458 1 464 7 12 12 -8 117 -33 176
-10 23 -21 56 -25 75 -9 43 -105 271 -151 360 -157 304 -388 592 -664 830 -41
36 -77 68 -80 71 -28 31 -292 211 -395 269 -111 63 -209 112 -295 150 -52 22
-104 45 -115 50 -60 30 -352 124 -465 150 -311 74 -555 101 -880 99 -179 -1
-259 -6 -335 -20z m496 -249 c24 -13 24 -32 1 -53 -15 -14 -23 -15 -50 -5 -27
11 -34 10 -48 -4 -25 -25 -11 -45 50 -74 59 -28 70 -45 68 -103 -3 -68 -75
-104 -161 -81 -50 13 -61 34 -34 62 17 16 24 18 41 9 29 -16 67 -14 82 4 17
21 0 40 -67 71 -82 39 -94 95 -33 155 24 24 37 29 80 29 28 0 60 -5 71 -10z
m-263 -32 c3 -25 1 -27 -55 -33 -32 -3 -65 -7 -73 -8 -20 -3 -25 -34 -9 -53
10 -13 25 -15 76 -9 l63 7 0 -31 c0 -28 -3 -30 -47 -36 -27 -3 -55 -7 -63 -8
-10 -2 -15 -13 -15 -32 l0 -30 75 0 c74 0 75 0 78 -27 2 -18 -1 -28 -10 -28
-7 0 -53 -5 -102 -10 -53 -6 -93 -7 -98 -2 -9 9 -27 164 -31 267 l-2 50 80 6
c124 9 130 8 133 -23z m550 6 c39 -16 56 -54 47 -106 -9 -52 -45 -76 -121 -80
l-59 -3 -3 -47 c-3 -52 -21 -73 -53 -63 -19 6 -21 12 -16 69 5 66 26 224 32
242 5 15 128 7 173 -12z m257 -31 c44 -9 84 -19 88 -23 12 -10 -14 -62 -28
-56 -7 2 -37 7 -67 11 -45 6 -56 4 -61 -9 -12 -30 4 -44 64 -55 55 -11 59 -14
53 -34 -11 -38 -20 -41 -79 -28 -63 14 -75 10 -75 -28 0 -23 6 -28 45 -39 25
-7 54 -12 65 -12 24 0 31 -11 23 -38 -4 -16 -13 -22 -34 -22 -35 0 -171 28
-181 38 -6 6 21 129 58 260 17 60 14 59 129 35z m-1272 -153 c114 -137 129
-160 104 -160 -9 0 -22 -3 -31 -6 -10 -4 -27 5 -46 26 l-29 32 -55 -16 c-53
-16 -66 -29 -66 -67 0 -19 -46 -46 -58 -34 -7 7 -5 53 9 210 11 118 21 145 54
145 5 0 59 -58 118 -130z m1608 79 c37 -13 89 -56 89 -74 0 -12 -41 -35 -61
-35 -5 0 -23 9 -38 21 -53 39 -132 -3 -146 -77 -11 -62 47 -120 95 -94 18 9
25 9 41 -6 10 -9 19 -27 19 -40 0 -32 -55 -47 -119 -33 -81 18 -121 66 -121
145 0 90 37 149 115 184 47 22 80 24 126 9z m-1953 -39 c15 0 16 -32 0 -48 -7
-7 -26 -12 -43 -12 -64 0 -98 -56 -75 -125 24 -71 118 -100 164 -50 18 20 28
23 51 17 41 -11 42 -27 3 -66 -50 -50 -134 -58 -210 -19 -41 20 -88 108 -88
163 0 51 26 102 62 121 32 18 79 28 103 23 11 -2 26 -4 33 -4z m2156 -40 c33
-12 33 -29 0 -88 -63 -112 -111 -212 -104 -217 4 -2 24 8 44 23 19 15 83 62
142 105 165 122 184 107 144 -111 -35 -195 -29 -182 -70 -168 -32 10 -35 14
-35 51 0 36 -4 42 -43 64 l-44 24 -37 -21 c-37 -21 -38 -21 -77 -3 -21 11 -50
22 -64 25 -54 13 -56 19 -19 93 90 179 120 233 128 233 6 0 21 -4 35 -10z
m-2379 -214 c73 -122 77 -130 59 -143 -10 -7 -25 -12 -33 -11 -15 3 -171 254
-171 276 0 19 42 33 56 19 6 -7 46 -70 89 -141z m-185 74 c9 -16 5 -23 -20
-41 -16 -13 -30 -28 -30 -33 0 -6 32 -53 70 -105 39 -52 70 -100 70 -106 0 -7
-11 -17 -25 -23 -24 -11 -28 -9 -58 35 -70 101 -119 163 -130 163 -6 0 -25 -5
-44 -12 -29 -11 -35 -10 -47 8 -18 24 -15 27 87 86 91 52 112 57 127 28z
m3028 -96 c28 -19 34 -9 -101 -173 -20 -25 -36 -50 -34 -56 2 -5 22 -23 45
-38 38 -25 40 -30 30 -52 -15 -34 -44 -40 -75 -18 -47 33 -78 53 -100 64 -13
7 -23 18 -23 25 0 13 116 160 179 227 39 42 47 44 79 21z m-3288 -73 c0 -23
-6 -31 -30 -40 -37 -12 -48 -37 -27 -58 12 -13 21 -14 48 -4 17 6 51 11 74 11
37 0 48 -5 74 -35 67 -77 14 -175 -94 -175 -32 0 -35 2 -35 30 0 23 5 30 19
30 11 0 33 11 48 24 l28 25 -22 22 c-19 19 -25 20 -54 10 -40 -14 -104 -14
-130 -1 -23 13 -49 61 -49 91 0 12 17 39 39 60 31 31 46 39 75 39 33 0 36 -2
36 -29z m3494 -66 c10 -7 16 -18 15 -23 -6 -13 -218 -235 -234 -245 -19 -10
-55 13 -55 36 0 23 218 247 239 247 9 0 24 -7 35 -15z m-3610 -165 c104 -103
118 -121 107 -134 -8 -9 -21 -16 -30 -16 -9 0 -70 52 -136 115 -118 113 -119
114 -101 134 11 12 24 21 30 21 6 0 65 -54 130 -120z m3738 63 c24 -21 61 -54
82 -74 l39 -37 -24 -24 c-21 -21 -45 -28 -145 -43 -65 -10 -123 -22 -127 -25
-5 -4 12 -25 37 -46 25 -21 46 -47 46 -57 0 -23 15 -21 140 16 185 54 213 57
227 21 5 -13 -42 -89 -182 -289 -17 -25 2 -27 41 -4 22 12 91 49 154 81 l115
60 22 -28 c44 -56 76 -132 70 -169 -8 -48 -39 -89 -87 -114 -133 -69 -242 -34
-313 101 -14 26 -38 58 -54 72 -28 24 -28 25 -10 54 23 40 22 45 -17 88 -29
31 -36 35 -54 25 -11 -6 -28 -11 -37 -11 -15 0 -83 56 -215 177 l-35 33 27 26
c26 27 53 34 197 54 35 4 67 12 72 17 6 6 -7 23 -31 42 -44 35 -48 46 -23 73
23 26 38 23 85 -19z m-3965 -61 c7 -4 15 -21 18 -37 5 -27 2 -32 -37 -50 -76
-35 -75 -99 2 -152 48 -33 94 -30 132 8 l31 30 -23 22 c-16 15 -24 18 -27 10
-10 -27 -83 -1 -83 29 0 12 69 78 82 78 18 0 148 -111 148 -126 0 -18 -41 -83
-67 -106 -25 -23 -86 -48 -117 -48 -52 0 -128 34 -171 77 -90 88 -65 205 55
257 41 18 41 18 57 8z m-142 -292 c22 -11 58 -37 79 -59 100 -102 27 -251
-124 -251 -114 0 -219 85 -220 178 -1 118 145 190 265 132z m-262 -384 c109
-51 125 -54 134 -28 3 9 15 30 26 45 20 30 45 30 78 0 15 -13 13 -20 -28 -89
-26 -42 -51 -74 -61 -74 -8 0 -47 15 -86 34 -39 18 -111 52 -159 74 -85 40
-87 42 -75 64 25 45 17 46 171 -26z m5005 -102 c2 -17 -25 -46 -129 -133 -72
-61 -135 -111 -140 -111 -5 0 -15 12 -21 26 -11 24 -10 29 15 48 32 26 33 35
7 86 -19 37 -23 40 -64 40 -36 0 -45 4 -54 25 -7 14 -12 28 -12 30 0 6 151 11
285 11 105 -1 110 -2 113 -22z"/>
<path d="M3532 5543 c3 -34 6 -38 34 -41 19 -2 38 3 48 14 26 25 0 58 -48 62
l-37 3 3 -38z"/>
<path d="M2520 5410 c0 -35 3 -40 23 -40 44 0 50 14 22 48 -35 42 -45 40 -45
-8z"/>
<path d="M4562 5198 c-16 -16 -15 -38 1 -38 17 0 37 20 37 37 0 16 -22 17 -38
1z"/>
<path d="M5336 4607 c-16 -12 -16 -14 -2 -27 14 -11 19 -10 31 6 8 10 15 22
15 27 0 11 -24 8 -44 -6z"/>
<path d="M5520 4392 c-83 -43 -93 -61 -47 -95 51 -39 150 -13 169 45 11 32 -8
81 -32 86 -8 1 -49 -15 -90 -36z"/>
<path d="M1020 4553 c-32 -12 -60 -47 -60 -74 0 -38 58 -96 104 -105 41 -7 89
17 105 54 9 19 8 30 -7 55 -27 47 -103 85 -142 70z"/>
<path d="M5698 4093 c-29 -4 -32 -10 -22 -37 9 -23 37 -20 62 7 21 23 20 39
-2 36 -6 -1 -23 -4 -38 -6z"/>
<path d="M2070 4010 c0 -5 6 -10 13 -10 7 0 18 -9 25 -20 11 -18 23 -20 112
-20 60 0 100 -4 100 -10 0 -6 -38 -10 -95 -10 -110 0 -98 12 -140 -140 -49
-178 -64 -226 -79 -270 -9 -25 -16 -53 -16 -62 0 -9 -12 -54 -26 -100 -14 -46
-30 -99 -35 -118 -5 -19 -23 -82 -40 -140 -40 -138 -69 -240 -76 -267 -5 -21
-33 -34 -33 -15 1 17 48 192 59 217 5 11 14 45 21 75 7 30 18 73 25 95 7 22
18 60 25 85 7 25 16 54 20 65 5 11 11 34 15 50 3 17 15 59 25 95 37 123 71
245 92 325 11 44 24 87 28 95 9 18 -14 55 -28 46 -5 -3 -12 -18 -15 -33 -3
-16 -10 -44 -16 -63 -5 -19 -22 -78 -36 -130 -27 -99 -39 -141 -56 -200 -6
-19 -14 -48 -18 -65 -15 -55 -53 -189 -78 -275 -44 -153 -77 -273 -108 -385
-7 -27 -11 -53 -9 -57 3 -5 56 -8 118 -8 l113 0 16 43 c19 52 49 157 137 481
12 44 28 96 37 115 l15 36 10 -25 c5 -14 14 -45 18 -70 5 -25 13 -63 19 -85 6
-22 15 -60 20 -85 6 -25 17 -72 25 -105 7 -33 23 -104 35 -157 35 -159 25
-148 135 -148 l94 0 124 156 c68 86 130 164 138 174 8 10 73 92 145 182 79 99
131 157 133 147 3 -15 -28 -138 -78 -309 -19 -66 -50 -180 -80 -290 -17 -62
-21 -60 118 -60 128 0 129 0 140 25 7 14 12 34 12 45 0 10 4 21 9 24 5 3 11
20 14 38 3 18 10 49 15 68 5 19 19 71 31 115 12 44 31 112 43 150 21 74 39
134 56 200 6 22 23 78 37 125 14 47 28 104 32 128 l6 42 -220 0 c-185 0 -223
-2 -233 -15 -7 -9 -10 -19 -6 -22 4 -4 77 -9 164 -11 86 -2 164 -8 172 -13 10
-5 -6 -9 -45 -9 -33 0 -97 -3 -143 -7 l-83 -6 -37 -48 c-20 -27 -53 -70 -72
-96 -19 -26 -38 -52 -43 -58 -4 -5 -57 -77 -117 -160 -163 -222 -154 -211
-199 -219 -64 -10 -98 14 -47 34 13 5 39 30 57 57 18 26 43 61 56 76 13 16 23
33 23 39 0 5 -16 -12 -37 -39 -20 -26 -41 -51 -47 -55 -6 -4 -7 -8 -2 -8 5 0
-1 -9 -14 -20 -13 -11 -26 -17 -30 -13 -10 12 -42 205 -60 363 -5 47 -15 110
-21 140 -6 30 -14 84 -19 120 -5 36 -13 103 -19 148 -17 129 -7 122 -176 122
-90 0 -145 -4 -145 -10z m1077 -557 c-2 -10 -19 -72 -36 -138 -17 -66 -40
-147 -50 -180 -17 -54 -31 -104 -62 -220 -7 -22 -15 -51 -18 -64 -10 -33 -31
-39 -31 -8 0 13 9 53 20 88 31 100 36 117 65 229 24 94 49 185 77 278 5 18 16
32 25 32 10 0 14 -6 10 -17z"/>
<path d="M3722 4012 c-48 -3 -51 -5 -42 -23 9 -16 22 -19 88 -19 88 0 124 -8
119 -24 -4 -11 -25 -14 -129 -15 l-57 -1 -17 -52 c-32 -105 -86 -294 -94 -333
-5 -22 -18 -66 -30 -97 -11 -32 -20 -65 -20 -75 0 -9 -6 -35 -14 -58 -17 -47
-30 -93 -81 -275 -49 -177 -65 -220 -81 -220 -19 0 -18 21 7 103 20 68 43 151
74 267 9 30 19 64 24 75 5 11 17 52 26 90 10 39 26 97 36 130 23 76 96 332
116 408 11 43 12 62 4 70 -6 6 -12 9 -14 6 -8 -13 -71 -233 -147 -514 -11 -38
-31 -110 -45 -160 -15 -49 -29 -99 -31 -110 -3 -11 -21 -76 -41 -145 -19 -69
-39 -143 -45 -165 -7 -22 -15 -44 -20 -50 -15 -17 -9 -55 10 -56 128 -5 180
-5 198 1 15 6 25 26 38 74 11 38 24 66 31 66 9 0 15 22 20 63 8 77 24 142 71
307 37 125 46 151 57 147 7 -2 13 -23 15 -48 2 -24 9 -51 17 -59 7 -8 16 -31
19 -50 4 -19 16 -73 28 -120 23 -98 48 -212 48 -222 0 -5 -27 -8 -59 -8 -33 0
-63 -4 -66 -10 -4 -6 18 -10 58 -10 40 0 68 -5 74 -12 16 -21 21 -67 9 -77 -7
-6 -48 -12 -91 -14 l-80 -3 91 -2 c92 -2 117 -12 106 -41 -5 -13 -3 -14 9 -4
19 15 146 22 374 20 105 -1 240 -1 300 0 61 0 140 2 178 2 74 1 92 18 25 23
-38 3 -43 6 -43 28 0 29 -3 29 164 9 90 -11 109 -16 136 -40 27 -24 34 -26 46
-14 41 40 104 10 143 -68 8 -17 16 -26 16 -19 0 7 -12 38 -26 68 -24 52 -26
62 -25 212 1 155 1 157 27 180 30 26 20 28 -26 6 -43 -22 -111 -29 -149 -16
-30 11 -31 10 -31 -18 0 -16 -4 -31 -9 -34 -4 -3 -52 -8 -106 -12 -93 -7 -97
-6 -91 12 3 10 15 56 26 102 11 45 26 94 32 110 6 15 14 45 19 67 4 22 25 99
45 170 20 72 38 142 41 158 l5 27 -208 0 c-179 0 -254 -7 -234 -22 27 -21 78
-28 190 -28 75 0 131 -4 135 -10 4 -6 -9 -10 -32 -10 -21 -1 -83 -5 -137 -9
-114 -9 -102 -1 -216 -157 -35 -49 -97 -134 -138 -189 -40 -55 -80 -109 -88
-120 -7 -11 -27 -39 -44 -63 -33 -46 -62 -62 -115 -62 -43 0 -54 18 -26 39 21
16 21 19 7 47 -17 32 -47 245 -36 257 3 4 78 22 165 40 103 21 160 37 163 46
5 15 -15 14 -143 -12 -44 -10 -104 -22 -132 -28 -29 -6 -57 -8 -62 -5 -5 3
-14 45 -20 93 -16 115 -30 210 -47 307 -8 43 -14 98 -14 122 0 27 -5 46 -12
49 -19 6 -156 10 -216 7z m918 -602 c0 -11 -8 -46 -19 -78 -10 -31 -26 -88
-36 -127 -9 -38 -24 -80 -32 -93 -8 -13 -12 -30 -9 -37 2 -7 -1 -18 -7 -23
-17 -13 -205 -23 -213 -11 -11 18 28 49 60 49 30 1 31 1 8 13 -22 13 -21 15
79 143 144 185 169 209 169 164z m-230 -514 c67 -21 75 -26 72 -47 -5 -50 -3
-49 -161 -49 -145 0 -181 4 -181 20 0 4 16 28 35 54 l36 46 62 0 c38 0 91 -9
137 -24z"/>
<path d="M867 3783 c-4 -4 7 -13 24 -20 24 -10 125 -13 443 -13 227 0 416 -3
419 -7 4 -3 2 -12 -4 -20 -9 -10 -91 -13 -424 -13 l-412 0 -13 -39 c-14 -42
-37 -60 -46 -37 -3 8 -1 23 5 35 13 24 15 71 2 71 -10 0 -60 -137 -53 -145 3
-3 216 -5 473 -5 436 0 469 1 478 18 15 28 51 144 51 164 0 17 -21 18 -468 18
-258 0 -472 -3 -475 -7z"/>
<path d="M398 3748 c-8 -22 42 -38 114 -38 51 0 69 -3 66 -12 -3 -9 -30 -14
-75 -16 l-71 -3 -11 -42 c-7 -23 -20 -73 -31 -112 -10 -38 -32 -119 -49 -180
-17 -60 -35 -126 -41 -145 -5 -19 -18 -66 -29 -105 -49 -171 -63 -223 -72
-260 -21 -96 -68 -240 -79 -243 -9 -3 -11 5 -8 29 6 42 65 267 77 294 5 11 12
31 14 45 3 14 12 50 21 80 8 30 24 89 36 130 11 41 28 100 36 130 9 30 24 87
34 125 10 39 28 104 40 145 30 105 36 144 19 138 -7 -2 -18 -22 -25 -44 -59
-195 -125 -439 -141 -517 -3 -15 -9 -30 -14 -33 -5 -3 -9 -15 -9 -27 0 -19
-81 -315 -129 -472 -10 -33 -16 -66 -13 -73 3 -10 97 -12 440 -10 l436 3 26
77 c15 43 30 81 33 85 4 3 7 17 7 30 l0 23 -310 0 -310 0 0 34 c0 19 5 38 10
41 6 3 10 15 10 27 0 11 14 68 31 127 17 58 42 144 55 191 24 83 45 158 64
230 5 19 30 104 55 189 25 85 45 158 45 163 0 14 -248 10 -252 -4z m283 -1038
c164 0 248 -3 244 -10 -8 -13 -565 -14 -565 -1 0 11 38 20 58 15 8 -2 126 -4
263 -4z"/>
<path d="M5620 3421 c8 -6 29 -11 45 -11 17 0 41 -7 55 -15 34 -20 150 -19
222 1 32 9 56 19 53 22 -3 3 -92 7 -198 9 -133 3 -187 1 -177 -6z"/>
<path d="M785 3410 c4 -6 155 -10 419 -10 334 0 416 -3 425 -13 6 -8 8 -17 4
-20 -3 -4 -191 -7 -418 -7 l-411 0 -15 -42 c-9 -26 -23 -44 -34 -47 -15 -3
-17 2 -12 30 3 19 9 44 13 57 4 13 2 22 -5 22 -12 0 -35 -49 -46 -99 l-7 -31
476 0 c310 0 477 4 481 10 6 10 45 144 45 155 0 3 -207 5 -461 5 -304 0 -458
-3 -454 -10z"/>
<path d="M5428 3369 c17 -24 50 -65 74 -92 43 -47 43 -48 121 -54 50 -4 77
-10 77 -18 0 -15 -67 -25 -171 -25 -43 0 -81 -5 -84 -10 -4 -7 83 -9 266 -8
207 2 273 6 277 16 3 9 -22 12 -100 12 -110 0 -129 6 -151 49 -10 20 -44 48
-186 148 -14 10 -50 19 -89 21 l-65 5 31 -44z"/>
<path d="M6079 3384 c61 -27 61 -27 61 -14 0 15 -56 40 -87 39 -24 0 -20 -4
26 -25z"/>
<path d="M2672 3315 c-31 -36 -27 -46 4 -12 14 16 24 30 22 33 -3 2 -14 -7
-26 -21z"/>
<path d="M5303 3235 c6 -36 28 -65 35 -46 6 17 -14 75 -27 79 -11 4 -13 -4 -8
-33z"/>
<path d="M6186 3244 c-12 -31 -7 -64 10 -64 9 0 23 -8 31 -17 13 -16 14 -14 8
22 -11 66 -35 95 -49 59z"/>
<path d="M6236 3132 c-3 -5 -1 -22 4 -38 8 -29 8 -29 9 9 1 36 -3 45 -13 29z"/>
<path d="M658 3082 c-27 -6 -21 -17 15 -30 24 -9 149 -12 440 -12 355 0 407
-2 407 -15 0 -13 -52 -15 -400 -16 -220 -1 -403 -2 -407 -3 -19 -3 -34 -19
-49 -51 -20 -43 -48 -48 -38 -7 4 15 11 35 16 46 7 12 6 22 -1 29 -11 11 -10
15 -41 -76 -14 -43 -16 -59 -7 -63 7 -2 221 -3 477 -2 l465 3 27 75 c42 120
44 116 -65 124 -94 7 -808 6 -839 -2z"/>
<path d="M5440 2819 c-24 -10 -24 -11 -6 -25 32 -23 94 -13 78 12 -11 18 -45
23 -72 13z"/>
<path d="M5938 2793 c26 -5 27 -7 5 -43 -26 -44 -6 -60 73 -60 48 0 64 3 64
14 0 8 -10 17 -22 20 -31 8 -81 54 -73 66 4 6 -9 9 -32 9 -23 -1 -29 -3 -15
-6z"/>
<path d="M6138 2793 c23 -2 59 -2 80 0 20 2 1 4 -43 4 -44 0 -61 -2 -37 -4z"/>
<path d="M4000 2736 c0 -4 10 -11 23 -16 17 -7 18 -9 5 -9 -10 -1 -18 -5 -18
-11 0 -5 26 -10 57 -12 63 -3 71 -13 58 -65 -6 -24 -9 -25 -55 -21 -55 6 -57
3 -36 -47 19 -44 42 -55 119 -55 69 0 97 16 97 57 0 16 -8 23 -32 28 -67 13
-68 14 -68 57 l0 41 410 -8 c264 -4 410 -4 410 3 0 16 -65 21 -290 23 -202 2
-493 18 -622 34 -32 4 -58 4 -58 1z"/>
<path d="M5091 2697 c-15 -38 -3 -104 21 -121 13 -9 19 -24 17 -42 -3 -35 10
-94 21 -94 4 0 18 -11 31 -25 29 -30 83 -33 135 -9 38 18 79 68 69 84 -3 5
-33 10 -65 10 -32 0 -62 5 -65 10 -4 7 -13 6 -26 -1 -27 -14 -67 12 -74 49 -8
36 -20 78 -38 127 l-15 40 -11 -28z"/>
<path d="M5472 2681 c1 -15 -2 -33 -6 -40 -5 -8 9 -11 47 -11 37 0 59 -5 68
-16 20 -24 -3 -32 -93 -31 -85 1 -83 1 -92 -29 -5 -17 -1 -24 21 -33 16 -6 37
-11 48 -10 51 5 316 -4 290 -10 -44 -9 -39 -38 13 -78 51 -39 94 -43 152 -13
42 21 76 62 66 79 -4 5 -22 7 -41 4 -22 -4 -35 -2 -35 5 0 22 41 32 137 32 73
1 103 5 118 16 19 15 18 15 -16 9 -53 -10 -57 9 -14 56 20 22 34 46 32 52 -3
9 -74 12 -269 12 -238 0 -266 2 -282 18 -13 12 -34 17 -81 17 -64 0 -64 0 -63
-29z m648 -56 c0 -11 -12 -15 -45 -15 -42 0 -54 7 -38 23 3 4 24 7 45 7 27 0
38 -4 38 -15z"/>
<path d="M4346 2642 c-5 -8 -11 -52 -15 -104 -1 -4 -8 -5 -16 -2 -8 4 -15 1
-15 -5 0 -18 80 -51 123 -51 42 0 70 11 105 43 35 32 28 47 -22 47 -79 0 -101
9 -112 43 -9 31 -36 47 -48 29z"/>
<path d="M3806 2624 c-4 -12 3 -29 22 -53 26 -33 34 -36 86 -39 39 -2 61 1 71
12 13 12 13 15 -1 20 -10 4 -13 13 -9 26 5 14 1 22 -12 26 -10 3 -27 10 -37
16 -15 8 -21 6 -28 -6 -12 -21 -64 -21 -76 0 -8 15 -10 14 -16 -2z"/>
<path d="M4574 2625 c5 -11 10 -28 13 -37 9 -29 91 -63 149 -61 37 1 64 -5 99
-23 55 -28 98 -30 139 -9 41 22 82 19 89 -5 7 -26 23 -26 30 0 4 14 -3 25 -26
39 -27 15 -61 20 -202 25 -180 7 -220 17 -275 68 -22 20 -23 21 -16 3z"/>
<path d="M4260 2592 c0 -10 21 -32 32 -32 16 0 8 19 -12 30 -11 6 -20 7 -20 2z"/>
<path d="M5302 2353 c-12 -3 -28 -14 -36 -26 -177 -292 -308 -450 -511 -614
-33 -26 -66 -54 -74 -61 -7 -7 -57 -42 -111 -77 -290 -190 -636 -319 -980
-365 -214 -29 -524 -30 -715 -1 -151 22 -362 72 -430 101 -11 5 -54 21 -95 36
-176 63 -497 242 -595 331 -11 10 -47 40 -79 67 -171 145 -334 340 -436 524
l-24 42 -488 0 c-268 0 -488 -2 -488 -3 0 -32 128 -312 192 -419 197 -332 445
-606 774 -858 155 -119 391 -257 599 -350 39 -17 79 -35 90 -40 83 -38 355
-128 485 -160 19 -5 53 -13 75 -19 45 -11 236 -44 370 -63 124 -18 677 -17
810 0 217 29 447 74 520 102 11 4 49 15 85 24 85 22 264 88 366 136 45 21 92
41 105 45 13 4 35 15 49 25 14 10 36 21 49 25 50 16 304 171 451 277 183 130
422 364 568 554 71 93 173 237 203 289 77 132 219 459 205 472 -8 8 -894 13
-934 6z m434 -234 c142 -108 165 -139 102 -139 -52 1 -329 57 -341 69 -8 8 -7
16 5 28 15 14 24 15 70 5 94 -20 141 -25 135 -15 -4 6 -36 32 -71 59 -60 45
-77 70 -59 87 13 14 27 5 159 -94z m-4754 41 c0 -11 1 -24 2 -29 1 -5 -29 -33
-66 -61 -99 -77 -94 -83 39 -48 83 22 85 22 99 3 8 -10 14 -24 14 -30 0 -13
-298 -157 -311 -149 -23 14 -3 36 61 66 38 18 70 36 70 41 0 11 -41 8 -94 -8
-116 -35 -125 -10 -24 66 39 29 67 54 61 56 -5 2 -44 -12 -87 -32 -43 -19 -82
-33 -87 -30 -24 15 -4 38 54 64 120 54 202 95 205 103 2 4 17 8 33 8 22 0 29
-5 31 -20z m4923 -51 c4 -6 5 -13 2 -16 -8 -7 -47 7 -47 18 0 13 37 11 45 -2z
m-429 -157 c23 -16 23 -39 -2 -51 -51 -23 -13 -95 72 -136 56 -26 104 -12 104
30 0 26 26 40 54 29 26 -10 22 -80 -7 -99 -38 -25 -82 -28 -135 -11 -105 35
-182 105 -182 167 0 25 30 61 60 72 21 8 24 8 36 -1z m292 -58 c41 -29 17 -63
-32 -44 -28 10 -39 33 -23 49 15 15 28 14 55 -5z m-4613 -11 c0 -16 -225 -243
-240 -243 -22 0 -24 28 -4 53 24 31 24 38 -1 65 -17 18 -28 21 -64 16 -34 -5
-44 -3 -49 10 -4 10 -1 19 6 21 63 20 266 84 282 88 32 8 70 3 70 -10z m114
-128 c17 -20 31 -47 31 -60 0 -19 5 -25 23 -25 22 0 127 -91 127 -110 0 -5 -9
-14 -21 -20 -16 -9 -26 -8 -45 5 -16 10 -30 13 -37 7 -7 -4 -52 -41 -101 -81
-83 -68 -114 -81 -123 -55 -2 6 36 43 85 83 118 93 121 97 95 122 -19 20 -20
20 -64 -5 -24 -14 -58 -26 -75 -26 -27 0 -37 -8 -68 -56 -31 -46 -40 -53 -52
-44 -20 18 -18 32 16 76 50 66 37 82 -30 38 -37 -25 -75 -29 -75 -9 0 13 250
192 271 194 7 1 26 -15 43 -34z m4038 -41 c3 -9 -6 -27 -21 -43 -26 -27 -26
-28 -8 -44 25 -23 31 -22 64 10 25 24 30 25 53 13 30 -16 32 -31 5 -55 -25
-23 -26 -47 0 -63 17 -10 24 -8 55 19 31 28 39 30 60 21 14 -7 25 -16 25 -22
0 -13 -81 -100 -93 -100 -16 0 -267 191 -267 203 0 6 19 30 42 54 34 35 44 40
60 32 11 -6 22 -17 25 -25z m-106 -148 c87 -31 157 -123 145 -190 -8 -40 -71
-100 -92 -88 -8 4 -66 54 -130 111 l-115 103 23 25 c45 50 103 63 169 39z
m-3711 -31 c7 -9 11 -17 9 -19 -2 -2 -58 -51 -123 -110 -66 -58 -123 -106
-127 -106 -3 0 -12 6 -18 13 -9 11 13 36 104 117 63 57 115 107 115 112 0 14
27 9 40 -7z m74 -60 c14 -14 13 -22 -10 -83 -31 -80 -39 -112 -28 -112 5 0 37
28 71 62 55 55 65 61 77 48 13 -13 1 -30 -97 -134 -105 -111 -114 -118 -135
-107 -30 16 -28 32 13 128 19 46 30 85 26 88 -5 3 -37 -24 -72 -60 -60 -62
-90 -78 -105 -54 -7 12 213 239 233 239 6 0 19 -7 27 -15z m225 -156 c55 -35
59 -43 35 -70 -16 -17 -18 -17 -55 1 -21 11 -45 17 -53 14 -18 -7 -31 -37 -17
-42 5 -2 22 -13 36 -24 l26 -20 -22 -24 -22 -23 -37 22 c-32 18 -40 19 -54 8
-22 -18 -20 -48 3 -56 10 -3 26 -14 35 -24 15 -17 15 -20 -3 -42 l-19 -23 -58
36 c-32 20 -60 40 -61 45 -2 6 33 54 77 108 45 54 88 109 97 122 20 30 32 29
92 -8z m3021 0 c40 -50 82 -100 110 -132 l36 -39 37 22 c20 12 41 19 46 16 5
-4 11 6 13 21 6 50 75 35 80 -18 3 -21 -1 -24 -32 -24 -33 0 -35 -2 -32 -25 3
-21 -4 -30 -40 -50 -82 -47 -67 -54 -183 85 -28 33 -52 62 -56 65 -3 3 -17 21
-32 41 l-27 36 22 16 c22 14 38 10 58 -14z m-2870 -89 c32 -16 62 -34 65 -40
13 -21 -23 -55 -115 -106 -52 -28 -96 -57 -98 -63 -2 -6 13 -20 32 -32 20 -11
36 -26 36 -33 0 -16 -21 -36 -36 -36 -16 0 -134 70 -134 79 0 15 33 53 54 61
55 24 161 90 164 102 1 8 -9 20 -23 26 -31 14 -41 37 -25 57 16 19 11 20 80
-15z m2745 -35 c39 -39 45 -50 45 -87 0 -41 3 -45 55 -78 30 -19 55 -40 55
-45 0 -6 -13 -16 -30 -23 -28 -13 -32 -12 -73 22 -24 20 -47 36 -51 36 -12 0
5 -42 25 -64 11 -11 19 -23 19 -28 0 -12 -40 -30 -55 -24 -15 5 -185 260 -185
276 0 15 90 58 123 59 20 1 39 -11 72 -44z m-2503 -83 c4 -4 -2 -43 -12 -87
-10 -44 -15 -84 -11 -88 5 -5 34 23 66 62 51 63 60 70 84 65 14 -4 30 -10 35
-15 11 -10 -122 -278 -142 -286 -34 -14 -32 17 6 95 22 44 38 83 35 86 -5 5
-54 -48 -97 -106 -28 -38 -49 -47 -61 -28 -4 6 1 44 10 85 9 41 15 79 13 86
-2 6 -22 -24 -45 -67 -43 -82 -50 -89 -71 -76 -10 7 0 35 40 118 80 168 86
177 117 169 14 -4 29 -9 33 -13z m2208 -3 c16 -29 7 -46 -35 -63 -39 -17 -42
-23 -21 -51 13 -18 17 -18 56 -5 39 13 43 13 56 -5 21 -28 18 -34 -26 -51 -46
-18 -44 -15 -28 -49 12 -27 20 -30 46 -16 9 4 29 11 43 14 21 5 28 2 37 -18
13 -28 10 -31 -76 -63 l-53 -20 -69 139 c-39 76 -70 143 -70 149 0 5 6 10 14
10 8 0 21 6 28 13 15 15 58 35 75 36 7 1 17 -8 23 -20z m500 -41 c24 -26 25
-41 5 -58 -31 -26 -92 34 -70 69 11 18 43 12 65 -11z m-2460 -52 c0 -13 -12
-45 -45 -121 -7 -16 -24 -59 -38 -95 -18 -48 -30 -66 -46 -68 -14 -2 -21 2
-21 12 0 16 35 113 65 184 9 20 23 52 31 70 14 33 54 46 54 18z m1758 0 c63
-33 102 -104 102 -185 0 -61 -19 -85 -87 -111 -60 -23 -58 -24 -98 75 -15 39
-38 96 -52 128 -13 32 -23 63 -21 69 5 15 64 36 101 37 15 1 40 -5 55 -13z
m-1620 -32 c17 -7 36 -24 41 -38 17 -44 -17 -124 -59 -138 -9 -3 -13 -24 -11
-71 2 -65 1 -67 -22 -67 -30 0 -37 16 -37 87 0 69 -18 68 -41 -3 -12 -36 -21
-50 -37 -52 -13 -2 -22 2 -22 9 0 15 79 258 91 281 11 20 34 18 97 -8z m200
-51 c5 -10 12 -84 16 -165 6 -119 5 -148 -6 -148 -24 0 -36 15 -40 45 -3 27
-7 30 -44 33 -35 3 -44 -1 -58 -22 -16 -26 -56 -36 -56 -15 0 11 93 182 136
250 27 43 39 48 52 22z m1043 1 c19 -23 -1 -50 -34 -46 -58 7 -47 -58 13 -78
55 -18 80 -51 80 -106 0 -34 -5 -47 -26 -63 -30 -24 -86 -28 -102 -8 -6 7 -9
23 -5 36 5 18 10 21 33 16 31 -7 56 15 46 40 -3 9 -26 24 -51 35 -47 20 -85
68 -85 107 0 12 12 35 26 52 29 35 82 43 105 15z m-869 -16 c9 -7 24 -42 34
-78 17 -60 42 -122 45 -110 1 3 7 43 13 90 9 70 14 85 30 88 10 2 23 -1 28 -6
10 -10 9 -25 -24 -244 l-10 -68 -33 0 c-23 0 -35 5 -39 18 -36 127 -48 162
-55 166 -5 3 -14 -29 -21 -72 -16 -102 -17 -104 -40 -100 -12 2 -21 5 -22 8
-5 24 28 295 38 312 8 12 38 10 56 -4z m322 -23 c54 -23 70 -55 71 -144 0
-126 -46 -175 -156 -169 l-54 3 -3 149 c-2 101 1 153 9 162 15 19 87 18 133
-1z m214 3 c5 -7 34 -77 64 -155 49 -125 53 -142 38 -146 -23 -6 -36 3 -44 30
-15 47 -99 38 -112 -11 -6 -26 -32 -42 -45 -29 -7 8 -3 35 36 223 20 95 37
119 63 88z m490 -180 c17 -17 15 -58 -3 -64 -21 -8 -45 14 -45 41 0 35 24 47
48 23z"/>
<path d="M987 1817 c-24 -10 -26 -14 -15 -29 14 -19 22 -16 52 20 22 25 9 29
-37 9z"/>
<path d="M1171 1703 c-29 -24 -19 -53 19 -53 35 0 58 25 43 48 -15 24 -36 26
-62 5z"/>
<path d="M5118 1509 c-18 -10 -25 -39 -10 -39 4 -1 34 -26 66 -56 33 -30 67
-53 75 -52 8 2 22 15 30 29 12 22 12 29 0 54 -28 58 -113 92 -161 64z"/>
<path d="M4596 1151 c-8 -13 3 -38 19 -45 22 -8 40 21 25 39 -14 17 -36 20
-44 6z"/>
<path d="M4108 958 c-14 -12 -12 -21 19 -95 38 -90 55 -101 93 -63 65 65 -41
213 -112 158z"/>
<path d="M2493 909 c-11 -27 -10 -31 10 -38 43 -16 76 26 45 57 -21 21 -43 13
-55 -19z"/>
<path d="M2705 806 c-20 -30 -9 -53 19 -43 17 7 21 34 7 56 -7 11 -13 8 -26
-13z"/>
<path d="M3195 827 c-9 -31 -14 -154 -6 -166 14 -22 58 -5 76 29 21 40 19 82
-5 112 -22 29 -59 43 -65 25z"/>
<path d="M3462 773 c-19 -34 -15 -63 8 -63 21 0 26 27 11 65 -8 19 -8 19 -19
-2z"/>
</g>
</svg>
